<?xml version="1.0" standalone="no"?><!DOCTYPE svg PUBLIC "-//W3C//DTD SVG 1.1//EN" "http://www.w3.org/Graphics/SVG/1.1/DTD/svg11.dtd"><svg class="icon" width="200px" height="148.08px" viewBox="0 0 1383 1024" version="1.1" xmlns="http://www.w3.org/2000/svg"><path d="M1299.857594 0H84.041684A84.017541 84.017541 0 0 0 0 83.969255v855.989061a84.041684 84.041684 0 0 0 84.041684 84.041684H1299.857594a84.065827 84.065827 0 0 0 84.041685-84.041684V83.969255A84.041684 84.041684 0 0 0 1299.857594 0z m-91.743292 105.04607L844.183147 470.111944c-45.606073 45.726788-97.923893 69.893903-151.424718 69.893903h-0.362145c-53.766398 0-106.229075-24.601688-151.955863-70.907908l-359.730278-364.051869zM105.04607 177.981987l345.510067 349.638516-345.510067 328.344414z m86.335266 740.971943l339.667469-322.791531c49.903522 32.01358 104.659782 48.696374 161.226764 48.817089h0.72429c57.170557 0 112.385533-16.90008 162.844343-49.541378l340.415901 323.51582z m1087.568445-66.489744l-342.830198-325.664544 342.830198-344.06149z" /></svg>