<?xml version="1.0" standalone="no"?><!DOCTYPE svg PUBLIC "-//W3C//DTD SVG 1.1//EN" "http://www.w3.org/Graphics/SVG/1.1/DTD/svg11.dtd"><svg class="icon" width="200px" height="200.00px" viewBox="0 0 1024 1024" version="1.1" xmlns="http://www.w3.org/2000/svg"><path d="M443.255 486.741c-29.354-47.104-41.096-99.942-41.096-158.72a291.02 291.02 0 0 1 293.82-293.888 291.02 291.02 0 0 1 293.888 293.888 291.02 291.02 0 0 1-293.888 293.82c-64.649 0-117.487-17.613-170.394-52.907L390.417 704.102l64.649 64.717-82.33 82.262-64.649-64.649-41.096 41.165 64.648 64.648-82.33 82.262L102.4 827.597l340.855-340.924zM695.98 151.69c-99.874 0-176.265 76.458-176.265 176.332s76.39 176.265 176.265 176.265c99.942 0 176.332-76.39 176.332-176.265 0-99.942-82.26-176.332-176.332-176.332z" /></svg>