<svg width="190.000000" height="190.000000" viewBox="0 0 190 190" xmlns="http://www.w3.org/2000/svg" xmlns:xlink="http://www.w3.org/1999/xlink">
	<g clip-path="url(#clip0_3)">
		<path id="path" d="M146.154 70.9157C148.811 74.6095 150.931 78.3352 152.512 82.0928C154.094 85.8503 154.885 90.4039 154.885 95.7536C154.885 100.849 154.062 105.434 152.418 109.51C150.772 113.586 148.685 117.28 146.154 120.592C145.141 121.993 144.066 123.234 142.927 124.317C141.789 125.4 140.333 125.941 138.561 125.941C136.284 125.941 134.354 125.113 132.772 123.458C131.19 121.801 130.399 119.828 130.399 117.534C130.399 116.516 130.589 115.496 130.97 114.478L130.779 114.478C131.412 113.077 132.171 111.739 133.057 110.465C133.943 109.191 134.797 107.886 135.62 106.549C136.442 105.211 137.138 103.683 137.708 101.963C138.277 100.244 138.561 98.1738 138.561 95.7536C138.561 93.461 138.277 91.4548 137.708 89.7353C137.138 88.0156 136.442 86.4553 135.62 85.0542C134.797 83.6531 133.943 82.3157 133.057 81.0419C132.171 79.7682 131.476 78.4308 130.97 77.0297C130.589 76.138 130.399 75.119 130.399 73.9726C130.399 71.68 131.19 69.7056 132.772 68.0498C134.354 66.3938 136.284 65.5659 138.561 65.5659C140.333 65.5659 141.789 66.1073 142.927 67.19C144.066 68.2726 145.141 69.5146 146.154 70.9157ZM84.8453 184.407C78.3918 178.547 71.5586 172.434 64.3458 166.064C57.133 159.695 50.4264 153.836 44.2258 148.486C37.013 142.373 29.8002 136.322 22.5874 130.336C21.1955 130.463 19.8036 130.527 18.4117 130.527C17.2728 130.654 16.0707 130.718 14.8053 130.718L11.5785 130.718C8.1619 130.718 5.37801 129.667 3.22682 127.566C1.07564 125.464 4.57764e-05 122.948 4.57764e-05 120.019L4.57764e-05 71.8709L0.189857 71.8709L4.57764e-05 71.68C4.57764e-05 68.1134 1.10727 65.1838 3.32173 62.891C5.53618 60.5984 8.28843 59.4519 11.5785 59.4519L22.3977 59.4519C34.0394 49.5168 44.6055 40.6006 54.096 32.7034C58.1453 29.2643 62.1314 25.9207 66.054 22.6727C69.9768 19.4245 73.5199 16.4631 76.6834 13.7882C79.847 11.1134 82.5043 8.88435 84.6555 7.10111C86.8067 5.31787 88.1354 4.23519 88.6415 3.85307C92.4378 1.05083 95.5063 -0.222912 97.8474 0.0318368C100.188 0.286585 102.023 1.43295 103.352 3.47094C104.68 5.50894 105.598 7.99273 106.104 10.9223C106.61 13.8519 106.863 16.5268 106.863 18.947L106.863 173.133L106.863 173.706C106.863 176.127 106.42 178.706 105.535 181.444C104.649 184.183 103.288 186.348 101.454 187.941C99.6192 189.533 97.3095 190.202 94.5257 189.947C91.7418 189.692 88.515 187.845 84.8453 184.407Z" fill-rule="evenodd" fill="#000000"/>
	</g>
</svg>
